<?xml version="1.0" encoding="utf-8"?>
<!-- Generator: Adobe Illustrator 22.0.0, SVG Export Plug-In . SVG Version: 6.00 Build 0)  -->
<svg version="1.1" id="TR" xmlns="http://www.w3.org/2000/svg" xmlns:xlink="http://www.w3.org/1999/xlink" x="0px" y="0px"
	 viewBox="0 0 113.5 34" style="enable-background:new 0 0 113.5 34;" xml:space="preserve">
<style type="text/css">
	.st0{fill:#FFFFFF;}
</style>
<g>
	<path class="st0" d="M7.4,6.3c0-0.5,0-1.2,0-1.9s0-1.2-0.1-1.4h0.1c0.2,0.8,0.3,1.3,0.4,1.7L12,15h1.5l4.3-10.4
		C18,4.2,18.1,3.7,18.2,3h0c-0.1,1.3-0.1,2.3-0.1,3v9h2.3V0.9h-3.2l-3.7,8.9l-0.7,2h-0.1c-0.1-0.4-0.3-1.1-0.6-1.9L8.5,0.9H5.2V15
		h2.2V6.3z"/>
	<polygon class="st0" points="31.6,13 25.9,13 25.9,8.9 30.9,8.9 30.9,6.9 25.9,6.9 25.9,2.9 31.2,2.9 31.2,0.9 23.6,0.9 23.6,15 
		31.6,15 	"/>
	<path class="st0" d="M37,14.6c0.7-0.4,1.2-1.1,1.5-1.9c0.4-0.8,0.5-1.8,0.5-3V0.9h-2.3v8.8c0,1.1-0.2,2-0.5,2.6
		c-0.4,0.6-0.9,0.9-1.6,0.9c-0.3,0-0.5,0-0.8-0.1c-0.3-0.1-0.5-0.2-0.7-0.4v2.3c0.4,0.2,1,0.3,1.7,0.3C35.5,15.2,36.3,15,37,14.6z"
		/>
	<path class="st0" d="M51.4,1.5c-1-0.6-2.1-0.9-3.4-0.9c-1.4,0-2.6,0.3-3.7,0.9c-1,0.6-1.9,1.5-2.4,2.6c-0.6,1.1-0.8,2.4-0.8,3.9
		c0,1.4,0.3,2.6,0.8,3.7c0.6,1.1,1.4,1.9,2.4,2.5c1,0.6,2.2,0.9,3.5,0.9c1.4,0,2.5-0.3,3.6-0.9c1-0.6,1.8-1.5,2.4-2.6
		c0.6-1.1,0.8-2.4,0.8-3.9c0-1.4-0.3-2.7-0.8-3.7C53.2,3,52.5,2.1,51.4,1.5z M51,11.8c-0.8,0.9-1.8,1.3-3.2,1.3
		c-0.8,0-1.6-0.2-2.2-0.6c-0.6-0.4-1.2-1-1.5-1.8c-0.4-0.8-0.5-1.7-0.5-2.7c0-1.5,0.4-2.8,1.2-3.8c0.8-1,1.8-1.5,3.2-1.5
		c1.3,0,2.4,0.5,3.1,1.4C51.8,5,52.1,6.3,52.1,8C52.1,9.6,51.8,10.9,51,11.8z"/>
	<path class="st0" d="M59.1,9.3h1.1c0.8,0,1.5,0.6,1.9,1.7l1.7,4.1h2.8l-2.2-4.6c-0.2-0.4-0.4-0.7-0.7-1.1c-0.3-0.3-0.6-0.6-0.9-0.7
		v0c1-0.2,1.7-0.7,2.3-1.4C65.7,6.5,66,5.7,66,4.7c0-1.2-0.4-2.1-1.2-2.8c-0.8-0.7-2-1-3.4-1h-4.6V15h2.3V9.3z M59.1,2.8H61
		c0.8,0,1.4,0.2,1.9,0.5c0.4,0.4,0.7,0.9,0.7,1.5c0,0.7-0.2,1.3-0.7,1.7c-0.5,0.4-1.1,0.7-1.9,0.7h-1.8V2.8z"/>
	<path class="st0" d="M77.5,15h2.6L74.7,0.9h-2.6L66.8,15h2.6l1.2-3.6h5.6L77.5,15z M71.2,9.5L73.1,4c0.1-0.3,0.2-0.6,0.2-1h0.1
		c0.1,0.5,0.1,0.8,0.2,1l1.9,5.4H71.2z"/>
	<path class="st0" d="M92.5,11.6c0.6-1.1,0.9-2.4,0.9-3.8c0-2.2-0.6-4-1.9-5.1c-1.3-1.2-3.1-1.8-5.7-1.8h-4.4V15h4.2
		c1.5,0,2.9-0.3,4-0.9C91,13.5,91.9,12.7,92.5,11.6z M85.7,13h-1.9V2.9h1.9c1.6,0,2.9,0.4,3.8,1.3c0.9,0.8,1.3,2.1,1.3,3.6
		c0,1.6-0.5,2.9-1.4,3.8C88.7,12.5,87.4,13,85.7,13z"/>
	<path class="st0" d="M104.9,14.3c1-0.6,1.8-1.5,2.4-2.6c0.6-1.1,0.8-2.4,0.8-3.9c0-1.4-0.3-2.7-0.8-3.7C106.8,3,106,2.1,105,1.5
		c-1-0.6-2.1-0.9-3.4-0.9c-1.4,0-2.6,0.3-3.7,0.9c-1,0.6-1.9,1.5-2.4,2.6c-0.6,1.1-0.8,2.4-0.8,3.9c0,1.4,0.3,2.6,0.8,3.7
		c0.6,1.1,1.4,1.9,2.4,2.5c1,0.6,2.2,0.9,3.5,0.9C102.7,15.2,103.9,14.9,104.9,14.3z M97.7,10.7c-0.4-0.8-0.5-1.7-0.5-2.7
		c0-1.5,0.4-2.8,1.2-3.8c0.8-1,1.8-1.5,3.2-1.5c1.3,0,2.4,0.5,3.1,1.4c0.8,0.9,1.1,2.2,1.1,3.9c0,1.6-0.4,2.9-1.2,3.8
		c-0.8,0.9-1.8,1.3-3.2,1.3c-0.8,0-1.6-0.2-2.2-0.6C98.5,12.1,98,11.5,97.7,10.7z"/>
	<path class="st0" d="M14,18.9h-2.6c-1.9,3.2-2.9,4.8-2.9,5c-0.1,0.1-0.2,0.4-0.3,0.7h0C8,24.3,7.9,24,7.6,23.6l-2.5-4.6H2.2l4.3,7
		L1.8,33h2.8l3-5.1c0.1-0.1,0.1-0.2,0.2-0.3c0-0.1,0.1-0.2,0.1-0.4h0c0,0.1,0.1,0.2,0.1,0.4c0,0.1,0.1,0.2,0.1,0.4l3,5.1h2.8
		l-4.5-7.1L14,18.9z"/>
	<path class="st0" d="M21.9,25.5L21.9,25.5c0.8-0.3,1.4-0.7,1.8-1.3c0.5-0.6,0.7-1.3,0.7-2c0-1-0.4-1.8-1.2-2.4
		c-0.8-0.6-1.8-0.9-3.2-0.9h-4.5V33h4.6c1.4,0,2.6-0.4,3.5-1.1c0.9-0.8,1.4-1.7,1.4-3c0-0.9-0.3-1.7-0.9-2.3
		C23.7,26,22.9,25.6,21.9,25.5z M17.9,20.9h1.5c0.8,0,1.4,0.2,1.9,0.5c0.4,0.3,0.6,0.7,0.6,1.3c0,0.7-0.2,1.2-0.7,1.6
		c-0.4,0.4-1.1,0.6-1.8,0.6h-1.5V20.9z M21.9,30.5c-0.5,0.4-1.1,0.6-2,0.6h-2v-4.4h1.8c1,0,1.7,0.2,2.2,0.6c0.5,0.4,0.7,0.9,0.7,1.6
		S22.4,30.1,21.9,30.5z"/>
	<path class="st0" d="M36.7,19.6c-1-0.6-2.1-0.9-3.4-0.9c-1.4,0-2.6,0.3-3.7,0.9c-1,0.6-1.9,1.5-2.4,2.6c-0.6,1.1-0.8,2.4-0.8,3.9
		c0,1.4,0.3,2.6,0.8,3.7c0.6,1.1,1.3,1.9,2.4,2.5c1,0.6,2.2,0.9,3.5,0.9c1.4,0,2.6-0.3,3.6-0.9c1-0.6,1.8-1.5,2.4-2.6
		c0.6-1.1,0.8-2.4,0.8-3.9c0-1.4-0.3-2.7-0.8-3.7C38.5,21,37.7,20.2,36.7,19.6z M36.3,29.9c-0.8,0.9-1.8,1.4-3.2,1.4
		c-0.8,0-1.6-0.2-2.2-0.6c-0.6-0.4-1.2-1-1.5-1.8C29,27.9,28.9,27,28.9,26c0-1.5,0.4-2.8,1.2-3.8c0.8-1,1.8-1.5,3.2-1.5
		c1.3,0,2.3,0.5,3.1,1.4c0.8,0.9,1.1,2.2,1.1,3.9C37.4,27.7,37,29,36.3,29.9z"/>
	<path class="st0" d="M52.1,18.9h-2.6c-1.9,3.2-2.9,4.8-2.9,5c-0.1,0.1-0.2,0.4-0.3,0.7h0c-0.1-0.3-0.2-0.6-0.5-1.1l-2.5-4.6h-2.9
		l4.3,7L39.9,33h2.8l3-5.1c0.1-0.1,0.1-0.2,0.2-0.3c0-0.1,0.1-0.2,0.1-0.4h0c0,0.1,0.1,0.2,0.1,0.4c0,0.1,0.1,0.2,0.1,0.4l3,5.1h2.8
		l-4.5-7.1L52.1,18.9z"/>
	<path class="st0" d="M67.3,19.6c-1-0.6-2.1-0.9-3.4-0.9c-1.4,0-2.6,0.3-3.7,0.9c-1,0.6-1.9,1.5-2.4,2.6c-0.6,1.1-0.8,2.4-0.8,3.9
		c0,1.4,0.3,2.6,0.8,3.7c0.6,1.1,1.3,1.9,2.4,2.5c1,0.6,2.2,0.9,3.5,0.9c1.3,0,2.5-0.3,3.6-0.9c1-0.6,1.8-1.5,2.4-2.6
		c0.6-1.1,0.8-2.4,0.8-3.9c0-1.4-0.3-2.7-0.8-3.7C69.1,21,68.3,20.2,67.3,19.6z M66.8,29.9c-0.8,0.9-1.8,1.4-3.2,1.4
		c-0.8,0-1.6-0.2-2.2-0.6c-0.6-0.4-1.1-1-1.5-1.8c-0.4-0.8-0.5-1.7-0.5-2.7c0-1.5,0.4-2.8,1.2-3.8c0.8-1,1.8-1.5,3.2-1.5
		c1.3,0,2.4,0.5,3.1,1.4c0.8,0.9,1.1,2.2,1.1,3.9C68,27.7,67.6,29,66.8,29.9z"/>
	<path class="st0" d="M82.1,27.9c0,0.3,0,0.7,0,1.3c0,0.5,0,0.9,0.1,1h0l-0.4-0.8l-6.4-10.4h-3V33h2.3v-9.2c0-0.2,0-0.6,0-1.2
		c0-0.6-0.1-0.9-0.1-1.1h0.1c0.1,0.3,0.3,0.6,0.5,1L81.6,33h2.8V18.9h-2.3V27.9z"/>
	<polygon class="st0" points="88.9,26.9 93.8,26.9 93.8,24.9 88.9,24.9 88.9,21 94.2,21 94.2,18.9 86.5,18.9 86.5,33 94.5,33 
		94.5,31 88.9,31 	"/>
	<path class="st0" d="M107.1,25.9l4.4-7h-2.6c-1.9,3.2-2.9,4.8-2.9,5c-0.1,0.1-0.2,0.4-0.3,0.7h0c-0.1-0.3-0.2-0.6-0.5-1.1l-2.5-4.6
		h-2.9l4.3,7L99.3,33h2.8l3-5.1c0.1-0.1,0.1-0.2,0.2-0.3c0-0.1,0.1-0.2,0.1-0.4h0c0,0.1,0.1,0.2,0.1,0.4c0,0.1,0.1,0.2,0.1,0.4
		l3,5.1h2.8L107.1,25.9z"/>
</g>
</svg>
