<?xml version="1.0" encoding="utf-8"?>
<!-- Generator: Adobe Illustrator 21.1.0, SVG Export Plug-In . SVG Version: 6.00 Build 0)  -->
<svg version="1.1" id="Layer_1" xmlns="http://www.w3.org/2000/svg" xmlns:xlink="http://www.w3.org/1999/xlink" x="0px" y="0px"
	 viewBox="0 0 66.1 34" style="enable-background:new 0 0 66.1 34;" xml:space="preserve">
<style type="text/css">
	.st0{fill:#FFFFFF;}
</style>
<g>
	<path class="st0" d="M25.8,13.3V4.8c-1,1.8-2,3.4-3,4.8c-1,1.4-1.9,2.6-2.8,3.7H25.8z M29,0.3v13h2.4l1.2,2.7H29v4.4h-3.2V16h-9.1
		v-2.7c1.9-2.2,3.7-4.4,5.3-6.8c1.6-2.3,2.8-4.4,3.7-6.3H29z"/>
	<polygon class="st0" points="44.5,0.3 37.8,8.9 37.2,9.8 37.2,9.8 37.2,0.3 33.8,0.3 33.8,20.5 37.2,20.5 37.2,10.6 37.2,10.6 
		37.8,11.5 44.7,20.5 49.2,20.5 40.5,9.9 48.6,0.3 	"/>
	<path class="st0" d="M9,29.3c0,2.9-1.4,4.4-4.1,4.4c-1.3,0-2.3-0.4-2.9-1.1c-0.7-0.7-1-1.8-1-3.2v-6.1h1.7v6.1
		c0,1.9,0.8,2.8,2.4,2.8c0.8,0,1.4-0.2,1.7-0.7c0.4-0.5,0.6-1.1,0.6-2v-6.2H9V29.3z"/>
	<polygon class="st0" points="11,23.3 11,33.6 16.7,33.6 16.7,32.1 12.7,32.1 12.7,23.3 	"/>
	<polygon class="st0" points="15.7,23.3 15.7,24.8 18.6,24.8 18.6,33.6 20.4,33.6 20.4,24.8 23.3,24.8 23.3,23.3 	"/>
	<path class="st0" d="M29.3,26.2c0-0.5-0.2-0.8-0.5-1.1c-0.3-0.3-0.8-0.4-1.4-0.4h-1.4V28h1.3c0.5,0,1-0.2,1.3-0.5
		C29.2,27.2,29.3,26.8,29.3,26.2 M29.6,33.6l-1.2-3c-0.3-0.8-0.8-1.2-1.4-1.2h-0.8v4.2h-1.7V23.3h3.3c1.1,0,1.9,0.2,2.5,0.7
		c0.6,0.5,0.9,1.2,0.9,2c0,0.7-0.2,1.3-0.6,1.8c-0.4,0.5-1,0.8-1.7,1v0c0.2,0.1,0.4,0.2,0.6,0.5c0.2,0.2,0.4,0.5,0.5,0.8l1.6,3.3
		H29.6z"/>
	<path class="st0" d="M37.2,24.8L37.2,24.8c-0.1,0.3-0.1,0.5-0.2,0.7l-1.4,4h3.1l-1.4-4C37.3,25.5,37.3,25.2,37.2,24.8 M40.2,33.6
		L39.3,31h-4.1l-0.9,2.6h-1.9l3.9-10.3h1.9l3.9,10.3H40.2z"/>
	<polygon class="st0" points="52.5,23.3 52.5,27.6 47.7,27.6 47.7,23.3 46,23.3 46,33.6 47.7,33.6 47.7,29.1 52.5,29.1 52.5,33.6 
		54.2,33.6 54.2,23.3 	"/>
	<path class="st0" d="M63.1,28.3c0-1.1-0.3-2-1-2.6c-0.7-0.6-1.6-0.9-2.8-0.9h-1.4v7.3h1.4c1.2,0,2.1-0.3,2.8-1
		C62.7,30.4,63.1,29.5,63.1,28.3 M64.9,28.3c0,1-0.2,2-0.7,2.8c-0.5,0.8-1.1,1.4-2,1.8c-0.9,0.4-1.8,0.6-2.9,0.6h-3.1V23.3h3.2
		c1.8,0,3.2,0.4,4.1,1.3C64.4,25.4,64.9,26.7,64.9,28.3"/>
</g>
</svg>
