<?xml version="1.0" encoding="utf-8"?>
<!-- Generator: Adobe Illustrator 21.1.0, SVG Export Plug-In . SVG Version: 6.00 Build 0)  -->
<svg version="1.1" id="Layer_1" xmlns="http://www.w3.org/2000/svg" xmlns:xlink="http://www.w3.org/1999/xlink" x="0px" y="0px"
	 viewBox="0 0 89.4 34" style="enable-background:new 0 0 89.4 34;" xml:space="preserve">
<style type="text/css">
	.st0{fill:#FFFFFF;}
</style>
<g>
	<path class="st0" d="M80.9,9.9c0-1.5-0.5-2.7-1.6-3.6C78.2,5.4,76.7,5,74.8,5h-4.5v10.5h4.4c1.8,0,3.3-0.5,4.4-1.6
		S80.9,11.5,80.9,9.9 M81.6,33.6L77.5,24c-1.1-2.6-2.7-3.9-4.7-3.9h-2.6v13.5h-5.6V0.4h10.9c3.5,0,6.3,0.8,8.2,2.4
		c2,1.6,2.9,3.8,2.9,6.6c0,2.3-0.7,4.3-2,5.9c-1.3,1.6-3.1,2.7-5.5,3.3v0.1c0.7,0.2,1.4,0.8,2.1,1.6c0.7,0.8,1.3,1.7,1.7,2.6
		l5.2,10.9H81.6z"/>
	<polygon class="st0" points="22.4,0.4 22.4,14.4 6.6,14.4 6.6,0.4 1,0.4 1,33.6 6.6,33.6 6.6,19.2 22.4,19.2 22.4,33.6 28.1,33.6 
		28.1,0.4 	"/>
	<path class="st0" d="M55.4,16.7c0-3.7-1.1-6.6-3.2-8.6c-2.2-2-5.2-3-9.2-3h-4.6v23.7H43c3.9,0,7-1.1,9.2-3.2
		C54.4,23.5,55.4,20.5,55.4,16.7 M61.4,16.6c0,3.4-0.8,6.4-2.3,9c-1.5,2.6-3.6,4.6-6.4,6c-2.8,1.4-6,2.1-9.7,2.1H32.8V0.4h10.5
		c6,0,10.6,1.4,13.6,4.1C59.9,7.3,61.4,11.3,61.4,16.6"/>
</g>
</svg>
